#!OML:ASF F:\VICON\USERDATA\INSTALL\rory3\rory3.ASF
:FULLY-SPECIFIED
:DEGREES
332
root 0.67211 15.5409 -12.2163 -156.927 -4.07082 -171.977
lowerback -7.42108 1.93369 0.51901
upperback -11.6461 0.855014 -1.61085
thorax -8.08109 -0.409631 -1.88823
lowerneck -3.36698 -15.3664 -16.8193
upperneck 29.7075 -32.2966 14.5543
head 16.5903 -16.224 2.23981
rclavicle 1.87852e-014 -6.20208e-014
rhumerus 347.636 -26.702 -401.012
rradius 14.9602
rwrist 11.6617
rhand -17.7333 12.6501
rfingers 7.12502
rthumb 8.52771 -17.1577
lclavicle 1.87852e-014 -6.20208e-014
lhumerus -21.3766 25.477 31.0572
lradius 12.3875
lwrist -85.1939
lhand 20.5763 25.8355
lfingers 7.12502
lthumb 45.0716 49.3069
rfemur -53.8339 26.3034 354.752
rtibia 45.702
rfoot 107.071 160.161
rtoes 56.0516
lfemur -52.2537 14.0249 -25.8192
ltibia 66.9783
lfoot -208.089 -166.925
ltoes -32.6161
333
root 0.655513 15.5817 -12.1433 -156.963 -2.14298 -171.866
lowerback -7.30237 1.68338 1.01172
upperback -11.833 0.406475 -1.65393
thorax -8.3712 -0.722075 -2.20554
lowerneck -1.65387 -15.5871 -16.9504
upperneck 29.1079 -33.1398 14.3442
head 16.0719 -16.8592 2.16252
rclavicle -1.04362e-014 3.49861e-014
rhumerus 345.752 -34.4334 -395.816
rradius 13.5284
rwrist 22.0185
rhand -17.9457 14.3174
rfingers 7.12502
rthumb 8.32272 -15.4987
lclavicle -1.04362e-014 3.49861e-014
lhumerus -22.2541 21.7148 29.1244
lradius 12.7386
lwrist -82.6558
lhand 21.6779 26.7439
lfingers 7.12502
lthumb 46.0949 49.7988
rfemur -51.2303 24.7287 357.075
rtibia 45.5893
rfoot 110.202 158.896
rtoes 55.9949
lfemur -52.4814 16.0826 -26.5322
ltibia 66.9174
lfoot -207.235 -167.414
ltoes -34.9824
334
root 0.661889 15.6168 -12.0563 -156.921 -0.0361907 -171.89
lowerback -7.22382 -0.87231 1.38618
upperback -11.9518 0.525141 -1.32198
thorax -8.57679 0.843151 -2.29286
lowerneck -0.824246 -15.8654 -17.1796
upperneck 28.8474 -34.127 14.2189
head 15.9923 -17.4614 1.96566
rclavicle -5.56597e-015 6.20208e-014
rhumerus 342.133 -48.2849 -387.923
rradius 11.8207
rwrist 38.4955
rhand -17.95 17.3019
rfingers 7.12502
rthumb 8.31864 -12.5143
lclavicle -5.56597e-015 6.20208e-014
lhumerus -22.9315 21.2949 26.5759
lradius 12.8442
lwrist -82.7675
lhand 21.3932 27.1495
lfingers 7.12502
lthumb 45.8306 50.3142
rfemur -49.0073 23.6757 358.824
rtibia 45.5095
rfoot 112.481 159.067
rtoes 56.0883
lfemur -52.7823 18.0987 -27.2841
ltibia 66.6756
lfoot -206.411 -168
ltoes -35.8766
335
root 0.648454 15.6639 -11.9818 -156.849 1.71236 -172.154
lowerback -7.68975 -1.22826 1.56627
upperback -11.6918 -0.0433075 -1.39928
thorax -8.04911 0.517487 -2.45884
lowerneck 0.0965489 -22.3973 -18.0057
upperneck 30.9982 -32.2749 11.9024
head 16.1643 -14.1202 2.19232
rclavicle -1.96797e-014 -3.18055e-015
rhumerus 338.424 -56.7068 -380.613
rradius 11.1546
rwrist 48.3417
rhand -19.2119 16.8107
rfingers 7.12502
rthumb 7.10064 -13.0502
lclavicle -1.96797e-014 -3.18055e-015
lhumerus -23.1509 21.7816 24.2867
lradius 12.8404
lwrist -83.1845
lhand 20.7754 27.4334
lfingers 7.12502
lthumb 45.2568 50.8311
rfemur -46.57 21.2714 360.685
rtibia 45.5692
rfoot 115.803 157.563
rtoes 55.2334
lfemur -52.8409 19.4465 -28.1264
ltibia 66.2091
lfoot -205.805 -168.378
ltoes -36.6814
336
root 0.629757 15.7186 -11.9239 -156.803 3.68349 -172.444
lowerback -8.37963 -1.48328 1.76345
upperback -11.359 -0.48648 -1.54485
thorax -7.31772 0.251151 -2.71344
lowerneck 0.250783 -22.8053 -17.9831
upperneck 30.6248 -32.9744 11.7771
head 16.0394 -14.5152 1.96163
rclavicle -4.06515e-014 -9.54166e-015
rhumerus 337.146 -57.9058 -376.781
rradius 11.0707
rwrist 50.0185
rhand -19.9567 14.5661
rfingers 7.12502
rthumb 6.38163 -15.3178
lclavicle -4.06515e-014 -9.54166e-015
lhumerus -22.8733 19.8771 23.0521
lradius 12.9731
lwrist -80.8235
lhand 20.8752 28.0264
lfingers 7.12502
lthumb 45.3495 51.3869
rfemur -44.341 17.9602 362.443
rtibia 45.6006
rfoot 120.725 153.711
rtoes 53.1902
lfemur -52.653 20.7974 -29.057
ltibia 65.605
lfoot -205.331 -168.42
ltoes -38.0444
337
root 0.694987 15.7635 -11.8126 -156.242 7.30537 -172.743
lowerback -8.90036 -1.53115 0.253256
upperback -11.409 -0.509722 -1.46182
thorax -7.03834 0.356166 -1.77946
lowerneck -0.196601 -23.3645 -17.2463
upperneck 30.7822 -33.6467 10.7044
head 15.8781 -14.8649 1.27948
rclavicle -1.20265e-014 -1.59028e-015
rhumerus 334.2 -61.3414 -371.034
rradius 11.0191
rwrist 54.7117
rhand -20.083 12.6515
rfingers 7.12502
rthumb 6.25967 -17.236
lclavicle -1.20265e-014 -1.59028e-015
lhumerus -22.5618 17.6958 21.9241
lradius 13.099
lwrist -78.0843
lhand 20.6558 28.4064
lfingers 7.12502
lthumb 45.1455 51.8484
rfemur -44.385 18.3057 362.343
rtibia 45.8618
rfoot 122.599 150.962
rtoes 52.2548
lfemur -53.4205 22.8838 -30.2681
ltibia 64.9341
lfoot -205.1 -169.524
ltoes -34.3397
338
root 0.673507 15.8282 -11.7199 -156.179 8.67376 -172.255
lowerback -9.0477 -1.89588 1.42003
upperback -11.2257 -1.10969 -1.28033
thorax -6.8106 -0.0524094 -2.25168
lowerneck 0.33306 -23.5753 -17.6136
upperneck 30.3312 -34.1589 11.1176
head 15.8338 -15.1644 1.3766
rclavicle -1.64991e-014 -4.77083e-015
rhumerus 327.744 -66.8892 -361.505
rradius 10.9779
rwrist 62.0901
rhand -20.1176 11.8753
rfingers 7.12502
rthumb 6.22626 -18.0132
lclavicle -1.64991e-014 -4.77083e-015
lhumerus -22.3125 16.6957 20.4657
lradius 13.1828
lwrist -76.5348
lhand 20.0047 28.2775
lfingers 7.12502
lthumb 44.5395 51.9562
rfemur -42.3852 15.3657 364.671
rtibia 46.0482
rfoot 126.341 149.091
rtoes 51.7239
lfemur -53.0264 23.1675 -29.7228
ltibia 64.2374
lfoot -205.359 -171.141
ltoes -28.2328
339
root 0.696808 15.8991 -11.6286 -156.069 11.1756 -172.632
lowerback -9.42923 -2.22346 0.820403
upperback -11.1017 -1.568 -1.22743
thorax -6.4549 -0.251603 -1.87633
lowerneck 0.670777 -23.7138 -17.9641
upperneck 29.9865 -34.5352 11.4524
head 15.835 -15.3935 1.45209
rclavicle 3.97569e-015 3.81667e-014
rhumerus 305.983 -75.4759 -336.321
rradius 11.0658
rwrist 74.1993
rhand -19.9811 14.1751
rfingers 7.12502
rthumb 6.35801 -15.7095
lclavicle 3.97569e-015 3.81667e-014
lhumerus -22.1356 14.6795 19.2529
lradius 13.5299
lwrist -73.9668
lhand 19.2497 27.9516
lfingers 7.12502
lthumb 43.8355 51.8956
rfemur -41.3619 14.2457 365.065
rtibia 46.4052
rfoot 128.53 147.14
rtoes 51.73
lfemur -52.9084 23.7653 -30.4523
ltibia 63.3686
lfoot -205.083 -170.842
ltoes -28.2864
340
root 0.704031 15.9763 -11.547 -156.354 13.7568 -172.758
lowerback -9.32371 -2.37359 0.743139
upperback -11.2224 -1.7846 -1.24549
thorax -6.65318 -0.365069 -1.85722
lowerneck 0.529427 -23.4258 -18.2246
upperneck 30.8162 -34.0778 11.0622
head 16.1459 -15.203 1.41866
rclavicle -5.1684e-014 -1.43125e-014
rhumerus 282 -77.6242 -309.46
rradius 11.4499
rwrist 81.2505
rhand -19.7444 16.4
rfingers 7.12502
rthumb 6.58657 -13.4776
lclavicle -5.1684e-014 -1.43125e-014
lhumerus -22.0941 10.0099 18.6771
lradius 14.2627
lwrist -69.0591
lhand 17.9174 28.1624
lfingers 7.12502
lthumb 42.5903 52.5516
rfemur -39.9862 12.6808 365.773
rtibia 46.7509
rfoot 132.356 144.48
rtoes 50.638
lfemur -52.2444 24.1963 -30.7498
ltibia 62.4334
lfoot -204.656 -169.039
ltoes -31.5683
341
root 0.70931 16.0551 -11.4821 -156.233 15.6429 -172.379
lowerback -9.93651 -2.5976 1.55639
upperback -11.076 -2.16085 -1.18082
thorax -6.2086 -0.623261 -2.26816
lowerneck -1.71003 -23.8903 -15.1614
upperneck 32.1997 -33.9269 7.55094
head 15.6256 -15.101 -0.242498
rclavicle 2.00773e-014 1.59028e-015
rhumerus 257.184 -77.5307 -282.175
rradius 11.7283
rwrist 86.4089
rhand -19.6683 17.4559
rfingers 7.12502
rthumb 6.66005 -12.4193
lclavicle 2.00773e-014 1.59028e-015
lhumerus -21.696 8.28967 17.3839
lradius 14.5083
lwrist -66.3953
lhand 15.3499 28.074
lfingers 7.12502
lthumb 40.1809 53.2452
rfemur -38.7739 10.7305 367.071
rtibia 47.1101
rfoot 136.153 142.905
rtoes 49.5453
lfemur -51.772 23.9775 -30.2912
ltibia 61.5648
lfoot -204.267 -167.058
ltoes -33.9368
342
root 0.744874 16.1305 -11.4147 -155.965 18.3313 -172.821
lowerback -10.829 -2.83099 1.03648
upperback -11.2234 -2.41059 -1.21876
thorax -5.86454 -0.696306 -2.05411
lowerneck -1.10763 -23.8166 -15.7008
upperneck 32.1506 -33.9475 7.84627
head 15.6824 -15.1736 -0.0423967
rclavicle -3.79679e-014 -1.59028e-015
rhumerus 223.656 -72.7787 -245.726
rradius 12.2944
rwrist 95.7488
rhand -19.9177 18.1446
rfingers 7.12502
rthumb 6.41925 -11.7381
lclavicle -3.79679e-014 -1.59028e-015
lhumerus -21.2635 8.22058 15.732
lradius 14.5189
lwrist -65.4616
lhand 12.3868 27.692
lfingers 7.12502
lthumb 37.3864 53.6556
rfemur -38.4958 9.64434 366.984
rtibia 47.6107
rfoot 138.099 142.574
rtoes 49.481
lfemur -51.6447 23.7935 -30.9575
ltibia 60.5917
lfoot -203.857 -164.718
ltoes -35.9723
343
root 0.75905 16.2073 -11.3523 -155.84 20.0074 -172.402
lowerback -11.3139 -3.06522 1.95436
upperback -11.3267 -2.77095 -1.03737
thorax -5.78164 -0.931524 -2.40948
lowerneck 1.67715 -23.3107 -19.2027
upperneck 31.1253 -34.1936 11.1768
head 16.3527 -15.4266 1.61671
rclavicle -1.8487e-014 2.54444e-014
rhumerus 211.592 -67.291 -230.928
rradius 12.9502
rwrist 102.27
rhand -19.866 17.4831
rfingers 7.12502
rthumb 6.4692 -12.3981
lclavicle -1.8487e-014 2.54444e-014
lhumerus -20.8522 6.9362 14.6438
lradius 14.8787
lwrist -63.5955
lhand 10.0126 27.5915
lfingers 7.12502
lthumb 35.1383 54.1151
rfemur -37.5149 7.49082 368.209
rtibia 48.0409
rfoot 140.494 142.36
rtoes 48.8606
lfemur -50.9438 22.9831 -30.1766
ltibia 59.7481
lfoot -203.678 -162.92
ltoes -35.4035
344
root 0.785065 16.2794 -11.2737 -155.802 22.2459 -172.364
lowerback -12.2928 -3.17468 2.41241
upperback -10.9645 -3.02955 -1.19214
thorax -4.91113 -1.11326 -2.88148
lowerneck 1.22827 -23.6378 -18.6236
upperneck 31.1619 -34.7516 11.0816
head 16.4068 -15.5989 1.32937
rclavicle -7.05686e-014 -7.15625e-014
rhumerus 208.388 -64.3874 -226.06
rradius 13.3156
rwrist 104.664
rhand -19.4966 16.7509
rfingers 7.12502
rthumb 6.82579 -13.1191
lclavicle -7.05686e-014 -7.15625e-014
lhumerus -19.9621 6.10552 13.3881
lradius 15.3169
lwrist -61.7855
lhand 8.36838 27.5232
lfingers 7.12502
lthumb 33.5772 54.3998
rfemur -37.1056 5.75956 368.739
rtibia 48.5291
rfoot 142.808 141.83
rtoes 47.7043
lfemur -50.1569 22.1043 -29.7522
ltibia 58.8006
lfoot -203.826 -161.349
ltoes -33.238
